<?xml version="1.0" standalone="no"?>
<!DOCTYPE svg PUBLIC "-//W3C//DTD SVG 20010904//EN"
 "http://www.w3.org/TR/2001/REC-SVG-20010904/DTD/svg10.dtd">
<svg version="1.0" xmlns="http://www.w3.org/2000/svg"
 width="600.000000pt" height="172.000000pt" viewBox="0 0 600.000000 172.000000"
 preserveAspectRatio="xMidYMid meet">

<!-- Go and graphic in orange -->
<g transform="translate(0.000000,172.000000) scale(0.100000,-0.100000)"
fill="#d05b21" stroke="none">
<path d="M1263 1230 c-55 -22 -51 -98 8 -165 20 -23 26 -35 17 -35 -20 0 -98
69 -98 86 0 16 -5 13 -195 -98 -151 -89 -212 -128 -200 -128 6 0 92 25 193 57
100 31 185 54 188 51 3 -3 -6 -34 -20 -69 -14 -34 -24 -64 -22 -66 2 -2 59 13
127 33 182 53 191 56 194 52 2 -2 -17 -30 -42 -62 l-46 -58 51 6 c29 3 52 2
52 -2 0 -4 -20 -20 -45 -35 -25 -16 -42 -34 -38 -39 3 -7 1 -8 -5 -4 -6 4 -64
-27 -129 -69 -65 -41 -122 -76 -127 -78 -5 -2 -9 -31 -9 -66 0 -54 6 -74 48
-157 44 -88 145 -232 229 -329 l35 -40 26 30 c44 53 160 208 193 262 56 87 84
155 89 213 l5 56 -60 27 c-33 15 -74 27 -91 27 -29 0 -31 -2 -25 -27 3 -16 8
-34 10 -42 7 -21 -16 -83 -40 -110 -24 -27 -75 -51 -108 -51 -12 0 -41 9 -64
21 -80 38 -107 145 -55 217 36 51 81 62 217 53 101 -6 127 -12 172 -35 60 -30
94 -29 131 5 30 29 26 39 -12 27 -27 -8 -42 -6 -85 12 -70 30 -76 55 -33 133
l31 59 -21 34 c-12 20 -29 34 -40 34 -22 0 -99 48 -99 61 0 5 28 9 63 9 l62 0
38 -65 c20 -35 37 -69 37 -76 0 -7 -12 -32 -26 -56 -33 -57 -27 -87 21 -103
48 -16 100 2 121 41 14 29 14 31 -12 62 l-27 32 29 3 c16 2 32 7 36 11 5 4
-24 35 -62 70 -47 42 -70 70 -70 85 0 22 -38 65 -75 84 -11 5 -65 22 -120 36
-55 15 -108 29 -118 32 -15 5 -17 1 -11 -21 6 -26 5 -25 -52 18 -63 47 -105
62 -141 47z m140 -936 l46 -36 -47 -39 c-25 -22 -50 -39 -54 -39 -13 0 -9 55
5 69 10 11 10 14 0 18 -14 5 -18 63 -5 63 5 0 30 -16 55 -36z m93 4 c24 -18
43 -37 43 -43 0 -8 -68 -63 -91 -73 -12 -6 -9 56 3 63 7 5 6 12 -3 23 -8 10
-13 23 -12 30 1 6 2 17 3 22 2 16 11 12 57 -22z"/>
<path d="M970 878 c-63 -22 -135 -46 -160 -53 -25 -7 -100 -33 -168 -57 l-123
-43 236 -3 c129 -1 235 -5 235 -9 0 -3 -14 -28 -31 -54 -17 -27 -28 -53 -24
-59 4 -6 2 -9 -4 -8 -6 2 -21 -12 -33 -31 l-22 -34 42 28 c23 15 39 31 36 36
-3 5 1 7 8 4 18 -6 124 59 120 74 -1 7 2 10 7 7 9 -6 141 70 214 124 l37 27
-137 2 c-76 1 -139 3 -140 5 -2 2 4 20 12 41 9 20 15 39 13 40 -2 2 -55 -14
-118 -37z"/>
<path d="M2265 917 c-87 -40 -130 -125 -123 -244 8 -131 69 -200 188 -210 68
-7 133 13 168 50 29 30 52 100 52 153 l0 44 -95 0 -95 0 0 -35 0 -35 50 0 c42
0 50 -3 50 -19 0 -25 -42 -69 -74 -77 -42 -10 -90 4 -121 36 -23 24 -30 41
-33 89 -8 114 34 176 120 176 43 0 53 -4 79 -32 23 -27 36 -33 69 -33 32 0 40
4 40 19 0 28 -41 83 -78 104 -43 25 -155 33 -197 14z"/>
<path d="M2663 781 c-51 -37 -60 -53 -69 -118 -16 -127 62 -211 185 -199 58 5
91 24 125 70 29 38 29 147 1 195 -32 54 -67 75 -138 79 -56 3 -66 1 -104 -27z
m150 -64 c27 -31 21 -150 -8 -171 -69 -52 -142 33 -115 133 19 70 80 90 123
38z"/>
</g>

<!-- Savanna text in navy blue -->
<g transform="translate(0.000000,172.000000) scale(0.100000,-0.100000)"
fill="#ffffff" stroke="none">
<path d="M3087 928 c-47 -13 -102 -65 -110 -104 -15 -79 28 -133 130 -159 96
-26 123 -41 123 -69 0 -31 -20 -47 -67 -52 -44 -6 -84 12 -98 44 -8 18 -18 22
-57 22 -55 0 -57 -5 -28 -65 29 -60 79 -85 170 -85 120 0 180 44 180 134 0 64
-41 110 -118 132 -121 35 -127 38 -130 68 -4 35 21 55 68 56 39 0 80 -23 80
-46 0 -10 13 -14 51 -14 51 0 51 0 45 28 -22 89 -132 140 -239 110z"/>
<path d="M3454 806 c-33 -15 -74 -60 -74 -82 0 -20 79 -18 101 2 35 32 111 9
96 -29 -6 -15 -21 -20 -105 -32 -84 -13 -129 -82 -96 -150 18 -40 50 -55 113
-55 34 0 56 6 75 21 l26 20 0 -20 c0 -18 6 -21 45 -21 l45 0 -1 123 c0 67 -5
138 -12 157 -22 65 -135 100 -213 66z m124 -218 c-4 -44 -48 -75 -85 -62 -18
6 -29 18 -31 33 -6 38 5 43 111 60 5 0 7 -13 5 -31z"/>
<path d="M4153 809 c-33 -10 -83 -61 -83 -85 0 -19 77 -19 96 1 20 19 78 19
94 0 19 -23 5 -43 -34 -49 -20 -4 -53 -9 -73 -12 -46 -7 -103 -61 -103 -98 0
-36 19 -73 48 -92 31 -20 116 -20 147 0 20 13 24 13 29 1 4 -10 20 -15 52 -15
l46 0 -4 138 c-4 157 -13 180 -79 206 -43 18 -87 19 -136 5z m117 -217 c0 -47
-59 -84 -100 -62 -22 12 -27 54 -8 66 11 7 66 20 96 23 7 1 12 -11 12 -27z"/>
<path d="M4575 810 c-12 -4 -27 -15 -34 -24 -18 -22 -31 -20 -31 4 0 17 -7 20
-45 20 l-45 0 0 -175 0 -175 50 0 50 0 0 119 c0 117 1 120 26 140 34 27 50 26
79 -4 24 -23 25 -30 25 -140 l0 -115 45 0 45 0 0 135 c0 155 -10 188 -65 211
-38 16 -70 17 -100 4z"/>
<path d="M4946 805 c-16 -9 -35 -23 -42 -33 -12 -15 -13 -14 -14 11 0 25 -3
27 -45 27 l-45 0 0 -175 0 -175 50 0 50 0 0 118 c0 64 4 122 8 128 17 26 51
35 80 22 32 -16 41 -52 41 -180 l1 -88 45 0 45 0 0 130 c0 153 -10 188 -63
213 -43 21 -73 21 -111 2z"/>
<path d="M5260 809 c-35 -14 -80 -59 -80 -81 0 -15 8 -18 44 -18 30 0 46 5 50
16 8 21 85 15 100 -8 16 -26 -2 -38 -71 -48 -87 -12 -120 -32 -133 -80 -12
-46 5 -101 38 -119 30 -16 124 -14 149 4 19 13 22 13 27 0 3 -10 19 -15 46
-15 l40 0 0 143 c0 133 -2 145 -21 166 -43 46 -129 64 -189 40z m120 -210 c0
-67 -90 -105 -120 -50 -14 27 9 52 56 61 61 12 64 11 64 -11z"/>
<path d="M3700 801 c0 -5 21 -66 46 -137 78 -222 64 -199 126 -202 l53 -3 27
78 c14 43 42 122 62 176 l36 98 -52 -3 -51 -3 -34 -105 c-18 -58 -33 -112 -33
-120 0 -33 -20 12 -50 118 l-33 112 -49 0 c-26 0 -48 -4 -48 -9z"/>
</g>
</svg>
